<svg xmlns="http://www.w3.org/2000/svg" version="1.1" xmlns:xlink="http://www.w3.org/1999/xlink" xmlns:svgjs="http://svgjs.dev/svgjs" width="2000" height="1247" viewBox="0 0 2000 1247"><g transform="matrix(1,0,0,1,-1.2121212121212466,0.504858299595071)"><svg viewBox="0 0 396 247" data-background-color="#111111" preserveAspectRatio="xMidYMid meet" height="1247" width="2000" xmlns="http://www.w3.org/2000/svg" xmlns:xlink="http://www.w3.org/1999/xlink"><g id="tight-bounds" transform="matrix(1,0,0,1,0.2400000000000091,-0.09999999999999432)"><svg viewBox="0 0 395.52 247.2" height="247.2" width="395.52"><g><svg></svg></g><g><svg viewBox="0 0 395.52 247.2" height="247.2" width="395.52"><g transform="matrix(1,0,0,1,75.54432,65.73395522546419)"><svg viewBox="0 0 244.43135999999998 115.73208954907162" height="115.73208954907162" width="244.43135999999998"><g><svg viewBox="0 0 244.43135999999998 115.73208954907162" height="115.73208954907162" width="244.43135999999998"><g><svg viewBox="0 0 244.43135999999998 115.73208954907162" height="115.73208954907162" width="244.43135999999998"><g><svg viewBox="0 0 244.43135999999998 115.73208954907162" height="115.73208954907162" width="244.43135999999998"><g id="textblocktransform"><svg viewBox="0 0 244.43135999999998 115.73208954907162" height="115.73208954907162" width="244.43135999999998" id="textblock"><g><svg viewBox="0 0 244.43135999999998 115.73208954907162" height="115.73208954907162" width="244.43135999999998"><g transform="matrix(1,0,0,1,0,0)"><svg width="244.43135999999998" viewBox="2.6 -35.2 75.4 35.7" height="115.73208954907162" data-palette-color="#ffffff"><path d="M3 0Q2.75 0 2.75-0.5L2.75-0.5Q2.75-1.05 3-1.5 3.25-1.95 3.85-2.55L3.85-2.55Q5-3.6 5.35-4.08 5.7-4.55 5.88-5.33 6.05-6.1 6.5-8.6L6.5-8.6 9.55-26.4Q9.75-27.65 11.28-28.9 12.8-30.15 14-30.15L14-30.15Q14.55-30.15 14.55-29.9L14.55-29.9Q14.55-29.75 14.08-29.05 13.6-28.35 13.35-26.7L13.35-26.7 11.85-17.15Q12.55-17 14.05-17L14.05-17Q16.45-17 18.32-18.13 20.2-19.25 21.25-21.2 22.3-23.15 22.3-25.55L22.3-25.55Q22.3-28.95 20.2-30.73 18.1-32.5 14.2-32.5L14.2-32.5Q11.2-32.5 8.65-31.4 6.1-30.3 4.15-28.1L4.15-28.1Q3.7-27.5 3.45-27.28 3.2-27.05 2.9-27.05L2.9-27.05Q2.6-27.05 2.6-27.4L2.6-27.4 2.65-27.95Q3.1-29.8 4.9-31.48 6.7-33.15 9.55-34.18 12.4-35.2 15.8-35.2L15.8-35.2Q20.55-35.2 23.4-33.08 26.25-30.95 26.25-27.2L26.25-27.2Q26.25-23.9 24.05-21.03 21.85-18.15 18.38-16.32 14.9-14.5 11.2-14.2L11.2-14.2 9.75-5.5Q9.5-4.2 8.8-3.4L8.8-3.4 8.8-3.35Q9.05-3.25 9.55-3.08 10.05-2.9 10.55-2.9L10.55-2.9Q11.15-2.9 11.78-3.18 12.4-3.45 12.6-3.45L12.6-3.45Q12.9-3.45 12.9-3.1L12.9-3.1Q12.9-2.65 12.3-2.05L12.3-2.05Q10.4 0 9.25 0L9.25 0Q8.8 0 7.6-0.4L7.6-0.4Q6-0.85 5.5-0.85L5.5-0.85Q4.75-0.85 3.95-0.43 3.15 0 3 0L3 0ZM27.65 0.5Q25.1 0.5 25.1-4.35L25.1-4.35Q25.1-9 27.12-13.53 29.15-18.05 32.6-20.93 36.05-23.8 40.05-23.8L40.05-23.8Q42.1-23.8 43.6-23.15L43.6-23.15Q42.95-20.6 42.7-19.4L42.7-19.4 41.65-14Q40.25-7.6 39.95-5.15L39.95-5.15Q39.9-4.8 39.9-4.3L39.9-4.3Q39.9-3.2 40.55-3.2L40.55-3.2Q41.35-3.2 42.05-4.23 42.75-5.25 43.65-7.15L43.65-7.15Q43.7-7.2 43.82-7.45 43.95-7.7 44.15-7.7L44.15-7.7Q44.45-7.7 44.45-7.1L44.45-7.1 44.35-6.3Q44-4.65 42.92-3.05 41.85-1.45 40.52-0.48 39.2 0.5 38.15 0.5L38.15 0.5Q36.4 0.5 36.4-2.35L36.4-2.35Q36.4-3.45 36.65-4.6L36.65-4.6 37.5-8.95 37.45-8.95Q35.05-4.75 32.32-2.13 29.6 0.5 27.65 0.5L27.65 0.5ZM30-3.6Q31.4-3.6 33.22-5.78 35.05-7.95 36.62-11.1 38.2-14.25 38.8-16.75L38.8-16.75 39.6-19.95Q38.1-20.95 36.45-20.95L36.45-20.95Q34.3-20.95 32.52-18.48 30.75-16 29.75-12.48 28.75-8.95 28.75-6.1L28.75-6.1Q28.75-4.85 29.02-4.23 29.3-3.6 30-3.6L30-3.6ZM49.05 0.5Q48.6 0.5 48.6 0.2L48.6 0.2Q48.6 0.05 48.82-0.53 49.05-1.1 49.45-3L49.45-3Q50-5.35 50.47-8.05 50.95-10.75 51.85-16.85L51.85-16.85Q52.15-18.75 52.15-19.5L52.15-19.5Q52.15-20.15 51.85-20.15L51.85-20.15Q51.35-20.15 50.75-19.35 50.15-18.55 49.3-17.15L49.3-17.15Q49.05-16.7 48.85-16.38 48.65-16.05 48.52-15.9 48.4-15.75 48.25-15.75L48.25-15.75Q47.85-15.75 47.85-16.3L47.85-16.3Q47.85-17.3 48.95-19.13 50.05-20.95 51.55-22.38 53.05-23.8 54.25-23.8L54.25-23.8Q55.05-23.8 55.4-23.08 55.75-22.35 55.75-21.25L55.75-21.25Q55.75-20.2 55.25-16.8L55.25-16.8 55-15.05 55.05-15.05Q57.5-19.4 59.82-21.6 62.15-23.8 64.25-23.8L64.25-23.8Q65.25-23.8 65.7-23.18 66.15-22.55 66.15-21.1L66.15-21.1Q66.15-19.7 65.7-17.15L65.7-17.15 65.45-15.75 65.55-15.75Q67.8-19.7 70.07-21.75 72.34-23.8 74.15-23.8L74.15-23.8Q76.25-23.8 76.25-20.8L76.25-20.8Q76.25-19.75 75.8-17.15L75.8-17.15 74.65-11.15Q73.4-4.8 73.4-3.95L73.4-3.95Q73.4-3.05 74.15-3.05L74.15-3.05Q75-3.05 75.7-4.17 76.4-5.3 77.2-7.15L77.2-7.15Q77.4-7.7 77.7-7.7L77.7-7.7Q78-7.7 78-7.1L78-7.1Q78-6.65 77.95-6.3L77.95-6.3Q77.59-4.5 76.52-2.93 75.45-1.35 74.09-0.43 72.75 0.5 71.65 0.5L71.65 0.5Q69.84 0.5 69.84-2.2L69.84-2.2Q69.84-4.25 71.09-10.2L71.09-10.2Q71.25-10.95 71.77-13.7 72.3-16.45 72.4-18.3L72.4-18.3Q72.4-19.15 72.25-19.55 72.09-19.95 71.5-19.95L71.5-19.95Q70.34-19.95 68.92-18.3 67.5-16.65 66.25-14.15 65-11.65 64.34-9.25L64.34-9.25 62.8-1.3Q62.75-0.7 61.67-0.1 60.6 0.5 59.95 0.5L59.95 0.5Q59.25 0.5 59.25-0.1L59.25-0.1Q59.7-2.05 60.9-8.63 62.1-15.2 62.3-18.3L62.3-18.3 62.3-18.8Q62.3-19.35 62.15-19.65 62-19.95 61.5-19.95L61.5-19.95Q60.15-19.95 58.47-17.88 56.8-15.8 55.47-12.83 54.15-9.85 53.75-7.45L53.75-7.45 52.95-3.1Q52.65-1.8 51.35-0.65 50.05 0.5 49.05 0.5L49.05 0.5Z" opacity="1" transform="matrix(1,0,0,1,0,0)" fill="#ffffff" class="wordmark-text-0" data-fill-palette-color="primary" id="text-0"></path></svg></g></svg></g></svg></g></svg></g></svg></g></svg></g></svg></g><g><path d="M0 123.6c0-68.262 55.338-123.6 123.6-123.6 41.608 0 78.414 20.559 100.813 52.073l-6.475 0c-21.62-28.47-55.832-46.855-94.338-46.855-65.38 0-118.382 53.001-118.382 118.382 0 65.38 53.001 118.382 118.382 118.382 38.506 0 72.718-18.384 94.338-46.855l6.475 0c-22.4 31.514-59.205 52.073-100.813 52.073-68.262 0-123.6-55.338-123.6-123.6z" fill="#7fdbff" stroke="transparent" data-fill-palette-color="tertiary"></path></g></svg></g><defs></defs></svg><rect width="395.52" height="247.2" fill="none" stroke="none" visibility="hidden"></rect></g></svg></g></svg>